<?xml version="1.0" encoding="UTF-8"?>
<svg id="Layer_2" data-name="Layer 2" xmlns="http://www.w3.org/2000/svg" viewBox="0 0 697.96 227.85">
  <defs>
    <style>
      .cls-1 {
        fill: #ff7b31;
      }

      .cls-1, .cls-2, .cls-3 {
        stroke-width: 0px;
      }

      .cls-2, .cls-3 {
        fill: #fff;
      }

      .cls-3 {
        fill-rule: evenodd;
      }
    </style>
  </defs>
  <g id="Layer_2-2" data-name="Layer 2">
    <g>
      <path class="cls-3" d="m260.88,112.73c0,13.93-4.09,25.18-12.26,33.76-8.18,8.58-19.69,12.87-34.55,12.87s-26.22-4.46-34.46-13.38c-8.24-8.92-12.36-20.01-12.36-33.25,0-13.93,4.4-25.18,13.2-33.76,8.8-8.58,20.01-12.87,33.62-12.87s25.6,4.29,34.09,12.87c8.49,8.58,12.73,19.83,12.73,33.76Zm-24.44,0c0-7.46-1.65-13.79-4.94-18.98-3.3-5.19-8.7-7.79-16.23-7.79-8.02,0-13.88,2.63-17.58,7.88-3.7,5.25-5.55,11.55-5.55,18.89,0,6.09,1.83,12.09,5.5,18,3.67,5.91,9.54,8.86,17.63,8.86,7.52,0,12.93-2.64,16.23-7.93,3.3-5.29,4.94-11.6,4.94-18.93Z"/>
      <g>
        <polygon class="cls-3" points="337.09 122.32 313.94 122.32 297.88 100.1 297.88 159.57 274.54 159.57 274.54 66.21 297.79 66.21 337.09 122.32"/>
        <polygon class="cls-3" points="353.05 66.31 376.3 66.31 376.3 159.57 352.96 159.57 352.96 102.44 327.85 102.44 353.05 66.31"/>
      </g>
      <polygon class="cls-3" points="510.27 86.38 482.27 86.38 482.27 66.31 566.38 66.31 556.95 86.38 533.61 86.38 533.61 159.57 510.27 159.57 510.27 86.38"/>
      <rect class="cls-2" x="576.17" y="66.21" width="23.34" height="93.35"/>
      <path class="cls-3" d="m697.96,66.21l-9.43,20.16h-30.34c-13.01.06-19.64,8.81-19.88,26.23.12,17.86,5.97,26.76,17.55,26.7h42.1v20.26h-45.84c-25.52-3.11-38.27-18.67-38.27-46.68s14-43.56,42.01-46.68h42.1Z"/>
      <path class="cls-3" d="m110.69,122.04h19.38v17.27h-18.67c-5.03,0-9.68-1.94-12.67-6.09-3.79-5.27-4.63-12.27-4.8-18.57-.16-6.13.36-12.87,3.1-18.46.44-.9.94-1.76,1.51-2.58.54-.78,1.14-1.51,1.8-2.19s1.34-1.26,2.09-1.8,1.55-1,2.38-1.4,1.76-.74,2.67-1.01c.97-.28,1.96-.48,2.96-.61,1.08-.14,2.17-.21,3.27-.22h30.34l9.43-20.16h-42.1c-28.01,3.11-42.01,18.67-42.01,46.68s12.76,43.56,38.27,46.68h45.74v-57.41h-52.14l9.42,19.88Z"/>
      <polygon class="cls-3" points="450.77 66.4 424.64 66.4 383.19 159.66 408.86 159.66 423.51 127.27 425.66 122.23 438.08 94.41 450.77 122.23 432.01 122.23 441.81 142.86 460.02 142.86 467.58 159.66 492.32 159.66 450.77 66.4"/>
      <g>
        <path class="cls-1" d="m235.17,102.25c-.82-3.11-2.04-5.94-3.66-8.5-3.3-5.19-8.71-7.79-16.23-7.79-2.98,0-5.67.37-8.05,1.09l-14.06,33.52-3.75,8.95,7.3-.36,20.81-1.04-4.5,11.38-7.63,19.29-22.82,57.69,39.54-57.58,38.07-55.44.63-.91h-25.82l.17-.3Z"/>
        <path class="cls-1" d="m248.52,79.35l21.42-36.77h-44.06l-9.88,23.55c13.34.37,24.06,4.65,32.15,12.84.12.13.25.25.37.38Z"/>
      </g>
      <path class="cls-1" d="m153.4,179.39c-10.97,6.61-23.74,10.56-37.45,10.89-42.11,1.01-77.07-32.3-78.08-74.41-1.01-42.11,32.3-77.07,74.41-78.08,15.03-.36,29.14,3.67,41.13,10.89v-16.57c-.15-.21-.23-.46-.24-.73l-.91-23.78c-.05-1.34-1-2.47-2.31-2.75L127.81.07c-1.31-.28-2.64.36-3.24,1.55l-10.48,20.96c-.24.47-.71.77-1.24.78-2.98.05-5.97.24-8.96.59-.52.06-1.02-.16-1.32-.59l-13.61-19.49c-.77-1.1-2.18-1.54-3.43-1.07l-21.2,7.94c-1.25.47-2.03,1.73-1.89,3.06l2.51,23.31c.06.52-.19,1.03-.63,1.32-2.51,1.67-4.92,3.45-7.22,5.33-.4.33-.95.41-1.43.22l-21.99-9.04c-1.24-.51-2.66-.11-3.47.96l-13.54,18.14c-.8,1.07-.77,2.55.07,3.6l14.73,18.27c.33.41.4.97.19,1.45-1.2,2.74-2.26,5.53-3.19,8.37-.16.49-.57.86-1.08.95l-23.4,4.29c-1.32.24-2.3,1.34-2.4,2.68L0,116.22c-.09,1.34.73,2.57,2,2.99l22.25,7.4c.5.17.86.6.94,1.11.47,2.93,1.09,5.85,1.86,8.77.13.5-.02,1.04-.4,1.39l-17.37,16.26c-.98.92-1.21,2.38-.57,3.55l10.88,19.85c.64,1.17,2,1.76,3.3,1.43l22.71-5.8c.51-.13,1.05.04,1.4.43,2,2.24,4.11,4.37,6.31,6.38.38.35.54.88.42,1.38l-5.82,23.06c-.33,1.3.27,2.65,1.44,3.29l19.88,10.82c1.18.64,2.64.4,3.55-.58l15.98-17.17c.36-.39.9-.54,1.41-.39,2.88.8,5.8,1.46,8.75,1.97.51.09.93.45,1.1.94l7.57,22.54c.43,1.27,1.66,2.09,2.99,1.99l22.57-1.65c1.34-.1,2.44-1.09,2.67-2.41l4.16-23.09c.09-.52.47-.94.97-1.09,1.62-.5,3.24-1.05,4.85-1.66,1.21-.45,2.39-.93,3.57-1.42.48-.2,1.02-.13,1.43.2l2.58,2.07v-19.4Z"/>
    </g>
  </g>
</svg>
